<svg width="39" height="39" viewBox="0 0 39 39" fill="none" xmlns="http://www.w3.org/2000/svg">
<path d="M10.5625 27.125C7.61042 27.125 5.11225 26.1023 3.068 24.057C1.02375 22.0117 0.00108419 19.5135 8.59788e-07 16.5625C-0.00108247 13.6115 1.02158 11.1133 3.068 9.068C5.11442 7.02267 7.61258 6 10.5625 6C13.5124 6 16.0111 7.02267 18.0586 9.068C20.1061 11.1133 21.1283 13.6115 21.125 16.5625C21.125 17.7542 20.9354 18.8781 20.5563 19.9344C20.1771 20.9906 19.6625 21.925 19.0125 22.7375L28.1125 31.8375C28.4104 32.1354 28.5594 32.5146 28.5594 32.975C28.5594 33.4354 28.4104 33.8146 28.1125 34.1125C27.8146 34.4104 27.4354 34.5594 26.975 34.5594C26.5146 34.5594 26.1354 34.4104 25.8375 34.1125L16.7375 25.0125C15.925 25.6625 14.9906 26.1771 13.9344 26.5562C12.8781 26.9354 11.7542 27.125 10.5625 27.125ZM10.5625 23.875C12.5938 23.875 14.3206 23.1643 15.743 21.743C17.1654 20.3217 17.8761 18.5948 17.875 16.5625C17.8739 14.5302 17.1633 12.8039 15.743 11.3836C14.3228 9.96338 12.5959 9.25217 10.5625 9.25C8.52908 9.24783 6.80279 9.95904 5.38363 11.3836C3.96446 12.8082 3.25325 14.5345 3.25 16.5625C3.24675 18.5905 3.95796 20.3173 5.38363 21.743C6.80929 23.1687 8.53558 23.8793 10.5625 23.875Z" fill="white"/>
</svg>
