<svg width="30" height="30" viewBox="0 0 30 30" fill="none" xmlns="http://www.w3.org/2000/svg">
<circle cx="15" cy="15" r="14.5" fill="white" stroke="black"/>
<path d="M13.2885 17.775L21.7635 9.3C21.9635 9.1 22.1968 9 22.4635 9C22.7301 9 22.9635 9.1 23.1635 9.3C23.3635 9.5 23.4635 9.73767 23.4635 10.013C23.4635 10.2883 23.3635 10.5257 23.1635 10.725L13.9885 19.925C13.7885 20.125 13.5551 20.225 13.2885 20.225C13.0218 20.225 12.7885 20.125 12.5885 19.925L8.28846 15.625C8.08846 15.425 7.99246 15.1877 8.00046 14.913C8.00846 14.6383 8.11279 14.4007 8.31346 14.2C8.51413 13.9993 8.75179 13.8993 9.02646 13.9C9.30113 13.9007 9.53846 14.0007 9.73846 14.2L13.2885 17.775Z" fill="black"/>
</svg>
