<svg width="172" height="172" viewBox="0 0 172 172" fill="none" xmlns="http://www.w3.org/2000/svg">
<path fill-rule="evenodd" clip-rule="evenodd" d="M85.8333 171.667C133.239 171.667 171.667 133.239 171.667 85.8333C171.667 38.4276 133.239 0 85.8333 0C38.4276 0 0 38.4276 0 85.8333C0 133.239 38.4276 171.667 85.8333 171.667ZM131.934 58.6671C132.336 58.2534 132.65 57.7631 132.858 57.2254C133.066 56.6877 133.163 56.1136 133.144 55.5374C133.126 54.9612 132.991 54.3947 132.748 53.8717C132.506 53.3488 132.16 52.88 131.732 52.4935C131.305 52.107 130.803 51.8107 130.258 51.6221C129.714 51.4336 129.136 51.3568 128.561 51.3962C127.986 51.4357 127.425 51.5906 126.911 51.8518C126.397 52.1129 125.941 52.475 125.57 52.9163L74.16 109.725L45.8779 82.7262C45.055 81.9397 43.9533 81.5123 42.8153 81.538C41.6772 81.5638 40.596 82.0406 39.8095 82.8635C39.023 83.6864 38.5956 84.7881 38.6214 85.9262C38.6471 87.0642 39.1239 88.1454 39.9468 88.9319L71.4219 118.974L74.6106 122.021L77.5676 118.75L131.934 58.6671Z" fill="#34DD5A"/>
</svg>
