<svg width="170" height="170" viewBox="0 0 170 170" fill="none" xmlns="http://www.w3.org/2000/svg">
<path fill-rule="evenodd" clip-rule="evenodd" d="M155.833 85C155.833 124.121 124.121 155.833 85 155.833C45.8787 155.833 14.1666 124.121 14.1666 85C14.1666 45.8787 45.8787 14.1666 85 14.1666C124.121 14.1666 155.833 45.8787 155.833 85ZM57.4529 112.547C56.7889 111.883 56.4159 110.982 56.4159 110.043C56.4159 109.104 56.7889 108.203 57.4529 107.539L79.992 85L57.4529 62.4608C56.8077 61.7928 56.4508 60.8982 56.4588 59.9696C56.4669 59.041 56.8394 58.1527 57.496 57.496C58.1527 56.8394 59.041 56.4669 59.9696 56.4588C60.8982 56.4508 61.7928 56.8077 62.4608 57.4529L85 79.992L107.539 57.4529C108.207 56.8077 109.102 56.4508 110.03 56.4588C110.959 56.4669 111.847 56.8394 112.504 57.496C113.161 58.1527 113.533 59.041 113.541 59.9696C113.549 60.8982 113.192 61.7928 112.547 62.4608L90.0079 85L112.547 107.539C113.192 108.207 113.549 109.102 113.541 110.03C113.533 110.959 113.161 111.847 112.504 112.504C111.847 113.161 110.959 113.533 110.03 113.541C109.102 113.549 108.207 113.192 107.539 112.547L85 90.0079L62.4608 112.547C61.7966 113.211 60.896 113.584 59.9568 113.584C59.0177 113.584 58.117 113.211 57.4529 112.547Z" fill="#FF2525"/>
</svg>
