<svg width="51" height="50" viewBox="0 0 51 50" fill="none" xmlns="http://www.w3.org/2000/svg">
<path d="M11.75 7.5C10.7554 7.5 9.80161 7.89509 9.09835 8.59835C8.39509 9.30161 8 10.2554 8 11.25V16.25C8 16.5815 7.8683 16.8995 7.63388 17.1339C7.39946 17.3683 7.08152 17.5 6.75 17.5C6.41848 17.5 6.10054 17.3683 5.86612 17.1339C5.6317 16.8995 5.5 16.5815 5.5 16.25V11.25C5.5 9.5924 6.15848 8.00269 7.33058 6.83058C8.50269 5.65848 10.0924 5 11.75 5H16.75C17.0815 5 17.3995 5.1317 17.6339 5.36612C17.8683 5.60054 18 5.91848 18 6.25C18 6.58152 17.8683 6.89946 17.6339 7.13388C17.3995 7.3683 17.0815 7.5 16.75 7.5H11.75ZM11.75 42.5C10.7554 42.5 9.80161 42.1049 9.09835 41.4016C8.39509 40.6984 8 39.7446 8 38.75V33.75C8 33.4185 7.8683 33.1005 7.63388 32.8661C7.39946 32.6317 7.08152 32.5 6.75 32.5C6.41848 32.5 6.10054 32.6317 5.86612 32.8661C5.6317 33.1005 5.5 33.4185 5.5 33.75V38.75C5.5 40.4076 6.15848 41.9973 7.33058 43.1694C8.50269 44.3415 10.0924 45 11.75 45H16.75C17.0815 45 17.3995 44.8683 17.6339 44.6339C17.8683 44.3995 18 44.0815 18 43.75C18 43.4185 17.8683 43.1005 17.6339 42.8661C17.3995 42.6317 17.0815 42.5 16.75 42.5H11.75ZM43 11.25C43 10.2554 42.6049 9.30161 41.9016 8.59835C41.1984 7.89509 40.2446 7.5 39.25 7.5H34.25C33.9185 7.5 33.6005 7.3683 33.3661 7.13388C33.1317 6.89946 33 6.58152 33 6.25C33 5.91848 33.1317 5.60054 33.3661 5.36612C33.6005 5.1317 33.9185 5 34.25 5H39.25C40.9076 5 42.4973 5.65848 43.6694 6.83058C44.8415 8.00269 45.5 9.5924 45.5 11.25V16.25C45.5 16.5815 45.3683 16.8995 45.1339 17.1339C44.8995 17.3683 44.5815 17.5 44.25 17.5C43.9185 17.5 43.6005 17.3683 43.3661 17.1339C43.1317 16.8995 43 16.5815 43 16.25V11.25ZM39.25 42.5C40.2446 42.5 41.1984 42.1049 41.9016 41.4016C42.6049 40.6984 43 39.7446 43 38.75V33.75C43 33.4185 43.1317 33.1005 43.3661 32.8661C43.6005 32.6317 43.9185 32.5 44.25 32.5C44.5815 32.5 44.8995 32.6317 45.1339 32.8661C45.3683 33.1005 45.5 33.4185 45.5 33.75V38.75C45.5 40.4076 44.8415 41.9973 43.6694 43.1694C42.4973 44.3415 40.9076 45 39.25 45H34.25C33.9185 45 33.6005 44.8683 33.3661 44.6339C33.1317 44.3995 33 44.0815 33 43.75C33 43.4185 33.1317 43.1005 33.3661 42.8661C33.6005 42.6317 33.9185 42.5 34.25 42.5H39.25ZM16.75 15C16.4185 15 16.1005 15.1317 15.8661 15.3661C15.6317 15.6005 15.5 15.9185 15.5 16.25C15.5 16.5815 15.6317 16.8995 15.8661 17.1339C16.1005 17.3683 16.4185 17.5 16.75 17.5H34.25C34.5815 17.5 34.8995 17.3683 35.1339 17.1339C35.3683 16.8995 35.5 16.5815 35.5 16.25C35.5 15.9185 35.3683 15.6005 35.1339 15.3661C34.8995 15.1317 34.5815 15 34.25 15H16.75ZM16.75 22.5C16.4185 22.5 16.1005 22.6317 15.8661 22.8661C15.6317 23.1005 15.5 23.4185 15.5 23.75C15.5 24.0815 15.6317 24.3995 15.8661 24.6339C16.1005 24.8683 16.4185 25 16.75 25H34.25C34.5815 25 34.8995 24.8683 35.1339 24.6339C35.3683 24.3995 35.5 24.0815 35.5 23.75C35.5 23.4185 35.3683 23.1005 35.1339 22.8661C34.8995 22.6317 34.5815 22.5 34.25 22.5H16.75ZM15.5 31.25C15.5 30.9185 15.6317 30.6005 15.8661 30.3661C16.1005 30.1317 16.4185 30 16.75 30H26.75C27.0815 30 27.3995 30.1317 27.6339 30.3661C27.8683 30.6005 28 30.9185 28 31.25C28 31.5815 27.8683 31.8995 27.6339 32.1339C27.3995 32.3683 27.0815 32.5 26.75 32.5H16.75C16.4185 32.5 16.1005 32.3683 15.8661 32.1339C15.6317 31.8995 15.5 31.5815 15.5 31.25Z" fill="white"/>
</svg>
