<svg width="32" height="32" viewBox="0 0 32 32" fill="none" xmlns="http://www.w3.org/2000/svg">
<circle cx="15.9375" cy="15.9375" r="15.9375" fill="#374151"/>
<g clip-path="url(#clip0_118_341)">
<path d="M14.1113 19.7227C12.543 19.7227 11.2159 19.1794 10.1299 18.0928C9.04387 17.0062 8.50058 15.679 8.5 14.1113C8.49942 12.5436 9.04272 11.2165 10.1299 10.1299C11.217 9.04329 12.5442 8.5 14.1113 8.5C15.6785 8.5 17.0059 9.04329 18.0936 10.1299C19.1814 11.2165 19.7244 12.5436 19.7227 14.1113C19.7227 14.7444 19.6219 15.3415 19.4205 15.9026C19.2191 16.4638 18.9457 16.9602 18.6004 17.3918L23.4348 22.2262C23.593 22.3844 23.6722 22.5859 23.6722 22.8305C23.6722 23.0751 23.593 23.2765 23.4348 23.4348C23.2765 23.593 23.0751 23.6722 22.8305 23.6722C22.5859 23.6722 22.3844 23.593 22.2262 23.4348L17.3918 18.6004C16.9602 18.9457 16.4638 19.2191 15.9026 19.4205C15.3415 19.6219 14.7444 19.7227 14.1113 19.7227ZM14.1113 17.9961C15.1904 17.9961 16.1078 17.6186 16.8635 16.8635C17.6191 16.1084 17.9967 15.191 17.9961 14.1113C17.9955 13.0317 17.618 12.1146 16.8635 11.3601C16.109 10.6055 15.1916 10.2277 14.1113 10.2266C13.0311 10.2254 12.114 10.6032 11.3601 11.3601C10.6061 12.1169 10.2283 13.034 10.2266 14.1113C10.2248 15.1887 10.6027 16.1061 11.3601 16.8635C12.1174 17.6209 13.0345 17.9984 14.1113 17.9961Z" fill="white"/>
</g>
<defs>
<clipPath id="clip0_118_341">
<rect width="20.7188" height="20.7188" fill="white" transform="translate(8.5 5.3125)"/>
</clipPath>
</defs>
</svg>
