<svg width="29" height="29" viewBox="0 0 29 29" fill="none" xmlns="http://www.w3.org/2000/svg">
<path d="M10.5625 21.3453C7.61042 21.3453 5.11225 20.3227 3.068 18.2773C1.02375 16.232 0.00108419 13.7338 8.59788e-07 10.7828C-0.00108247 7.83184 1.02158 5.33367 3.068 3.28834C5.11442 1.243 7.61258 0.220337 10.5625 0.220337C13.5124 0.220337 16.0111 1.243 18.0586 3.28834C20.1061 5.33367 21.1283 7.83184 21.125 10.7828C21.125 11.9745 20.9354 13.0985 20.5563 14.1547C20.1771 15.211 19.6625 16.1453 19.0125 16.9578L28.1125 26.0578C28.4104 26.3558 28.5594 26.7349 28.5594 27.1953C28.5594 27.6558 28.4104 28.0349 28.1125 28.3328C27.8146 28.6308 27.4354 28.7797 26.975 28.7797C26.5146 28.7797 26.1354 28.6308 25.8375 28.3328L16.7375 19.2328C15.925 19.8828 14.9906 20.3974 13.9344 20.7766C12.8781 21.1558 11.7542 21.3453 10.5625 21.3453ZM10.5625 18.0953C12.5938 18.0953 14.3206 17.3847 15.743 15.9633C17.1654 14.542 17.8761 12.8152 17.875 10.7828C17.8739 8.7505 17.1633 7.02421 15.743 5.60396C14.3228 4.18371 12.5959 3.4725 10.5625 3.47034C8.52908 3.46817 6.80279 4.17938 5.38363 5.60396C3.96446 7.02855 3.25325 8.75484 3.25 10.7828C3.24675 12.8108 3.95796 14.5377 5.38363 15.9633C6.80929 17.389 8.53558 18.0997 10.5625 18.0953Z" fill="#969DA9"/>
</svg>
